<svg width="29" height="15" viewBox="0 0 29 15" fill="none" xmlns="http://www.w3.org/2000/svg">
<g clip-path="url(#clip0_176_30)">
<path d="M5.21582 13.2051C2.53613 13.2051 0.868164 11.2363 0.868164 8.07129C0.868164 4.90625 2.53613 2.93066 5.20898 2.93066C7.23926 2.93066 8.87988 4.27734 9.14648 6.15039H8.19629C7.90918 4.75586 6.69238 3.79883 5.20898 3.79883C3.14453 3.79883 1.8252 5.45996 1.8252 8.07129C1.8252 10.6826 3.1377 12.3369 5.21582 12.3369C6.74023 12.3369 7.92285 11.4893 8.19629 10.1904H9.14648C8.86621 12.002 7.30762 13.2051 5.21582 13.2051ZM17.5479 13L16.4541 9.97852H12.3115L11.2178 13H10.2266L13.918 3.13574H14.8477L18.5322 13H17.5479ZM14.335 4.35938L12.5918 9.17188H16.1738L14.4238 4.35938H14.335ZM26.8721 13L25.7783 9.97852H21.6357L20.542 13H19.5508L23.2422 3.13574H24.1719L27.8564 13H26.8721ZM23.6592 4.35938L21.916 9.17188H25.498L23.748 4.35938H23.6592Z" fill="white"/>
</g>
<defs>
<clipPath id="clip0_176_30">
<rect width="29" height="15" fill="white"/>
</clipPath>
</defs>
</svg>
